<?xml version="1.0" standalone="no"?>
<!DOCTYPE svg PUBLIC "-//W3C//DTD SVG 20010904//EN"
 "http://www.w3.org/TR/2001/REC-SVG-20010904/DTD/svg10.dtd">
<svg version="1.0" xmlns="http://www.w3.org/2000/svg"
 width="1728.000000pt" height="1728.000000pt" viewBox="0 0 1728.000000 1728.000000"
 preserveAspectRatio="xMidYMid meet">

<g transform="translate(0.000000,1728.000000) scale(0.100000,-0.100000)"
fill="#000000" stroke="none">
<path d="M1 13568 c1 -2042 3 -3705 6 -3696 2 9 10 15 17 12 8 -3 16 5 21 18
l7 23 8 -25 8 -25 2 25 2 25 7 -24 6 -23 14 28 c32 69 40 79 60 76 27 -4 44
31 45 95 0 44 2 49 10 31 9 -22 10 -21 16 12 l7 35 2 -41 c1 -47 9 -58 28 -43
19 16 17 89 -2 89 -19 0 -20 30 -2 54 12 17 14 17 20 2 14 -37 27 -13 27 52 0
47 3 63 10 52 5 -8 10 -26 11 -40 1 -17 3 -19 6 -7 7 26 23 20 23 -9 0 -14 4
-23 10 -19 5 3 10 25 10 48 1 37 2 40 14 25 16 -22 30 -23 22 -3 -7 19 3 47
14 40 5 -3 12 -26 16 -50 6 -43 16 -56 28 -36 4 5 2 21 -4 36 -7 17 -7 24 0
20 6 -3 10 -13 10 -21 0 -8 5 -14 10 -14 6 0 10 5 10 10 0 6 10 10 21 10 20 0
21 4 16 51 -4 28 -13 56 -22 63 -9 7 -12 19 -9 34 7 24 24 30 24 7 0 -7 6 -18
13 -22 19 -12 28 -41 14 -47 -7 -3 -2 -3 10 0 14 3 25 -1 31 -12 8 -14 10 -13
16 10 4 15 4 32 0 38 -4 6 -7 27 -6 46 1 32 0 33 -12 16 -8 -10 -11 -25 -8
-32 3 -10 0 -13 -9 -10 -15 5 -14 54 1 73 4 6 10 21 12 35 2 14 9 24 15 23 9
-2 11 7 6 27 -5 30 10 43 20 18 3 -7 6 -4 6 7 1 17 3 17 11 5 7 -11 10 -7 10
18 0 45 20 40 22 -5 1 -28 3 -22 7 21 5 46 10 60 24 62 9 1 17 -2 17 -7 0 -5
-4 -9 -10 -9 -13 0 -13 -47 -1 -55 5 -3 8 -22 5 -43 -4 -29 -3 -33 5 -16 13
29 31 40 41 24 5 -8 10 -9 14 -2 3 6 1 12 -5 14 -28 9 29 89 89 124 18 10 35
29 38 41 8 31 24 29 24 -1 0 -14 4 -28 10 -31 10 -6 14 12 12 55 -2 24 -1 24
12 -5 10 -22 15 -25 15 -11 1 12 6 16 16 12 10 -4 15 1 15 14 0 11 5 20 10 20
6 0 10 -12 10 -27 1 -24 2 -26 11 -10 6 9 15 14 21 11 13 -8 28 15 21 33 -4
11 -8 10 -20 -4 -13 -16 -14 -15 -9 12 3 17 3 24 0 18 -10 -22 -31 6 -46 61
-2 5 7 10 19 11 14 1 23 -5 27 -19 4 -17 8 -18 18 -8 7 7 13 20 14 30 0 9 1
32 2 50 1 21 7 32 17 32 9 0 15 10 16 23 0 12 3 16 6 10 11 -28 23 -10 23 35
1 54 24 97 40 72 9 -13 10 -13 10 0 1 8 9 -5 20 -30 14 -35 20 -41 25 -27 11
26 25 21 25 -10 0 -14 3 -23 7 -19 4 3 6 27 4 51 -1 28 2 45 9 45 8 0 9 -11 5
-30 -8 -35 9 -41 20 -7 6 19 8 19 12 5 5 -21 19 -23 26 -5 4 9 6 8 6 -2 1 -8
9 -4 21 12 24 30 27 72 5 63 -12 -4 -15 3 -15 29 0 19 5 35 10 35 6 0 10 -8
10 -17 0 -9 3 -13 7 -10 3 4 12 2 20 -4 10 -9 13 -7 13 10 0 14 4 20 12 15 8
-5 9 2 5 24 -4 18 -10 45 -13 60 -4 19 -1 34 10 45 9 8 16 29 16 46 0 31 14
42 23 19 3 -7 6 -2 6 12 2 32 16 56 25 42 8 -13 46 -12 65 2 7 6 21 11 30 11
11 0 18 13 22 45 l5 45 12 -28 c7 -16 12 -33 12 -38 0 -6 4 -8 9 -5 5 4 12 0
14 -6 4 -9 6 -8 6 2 1 9 10 33 21 55 12 23 17 48 14 62 -4 13 -2 23 4 23 6 0
12 -8 14 -17 2 -10 7 3 12 29 4 26 13 49 21 52 8 3 15 15 15 26 0 25 15 26 29
3 6 -11 11 -13 11 -5 0 7 5 10 11 6 6 -3 9 -18 6 -32 -5 -25 -4 -25 9 -7 8 10
14 23 14 29 0 5 7 1 15 -10 14 -19 14 -19 14 1 0 24 -17 66 -18 46 -1 -8 -4
-12 -7 -8 -3 3 -2 13 3 21 7 14 13 9 32 -24 24 -44 45 -45 35 -2 -4 21 -3 24
5 12 9 -12 13 -12 19 -2 14 21 32 -26 36 -91 3 -52 2 -56 -12 -36 -8 11 -12
31 -10 44 4 17 1 22 -9 18 -11 -4 -13 -15 -8 -42 4 -20 11 -37 16 -39 5 -2 9
-21 9 -43 0 -33 3 -39 21 -39 19 0 21 -4 15 -39 -5 -30 -2 -44 14 -62 l19 -24
1 43 c0 49 12 53 45 15 18 -21 24 -24 25 -12 0 9 7 19 15 23 8 3 15 18 16 33
0 23 2 25 8 9 5 -14 10 -16 15 -8 4 7 4 17 1 22 -3 6 1 10 10 10 21 0 76 54
72 71 -2 8 -2 11 0 7 3 -5 9 -8 14 -8 15 0 10 40 -7 57 -8 9 -11 19 -6 22 5 3
3 21 -6 41 -12 28 -16 32 -21 17 -6 -16 -8 -16 -24 3 -11 13 -13 20 -4 20 8 0
7 4 -3 10 -8 5 -23 7 -32 4 -13 -4 -18 3 -24 33 -4 21 -13 47 -20 58 -9 13
-11 34 -7 58 6 42 21 57 34 36 7 -11 9 -9 9 6 1 28 57 115 75 115 8 0 15 9 15
20 0 13 7 20 19 20 11 0 23 5 26 10 4 6 11 8 16 5 5 -4 9 -2 9 4 0 6 6 8 14 5
9 -3 17 3 21 15 7 23 20 27 30 10 5 -7 15 -5 31 5 13 9 31 16 39 16 12 0 15 6
10 21 -6 17 -3 20 16 17 21 -3 24 1 23 30 0 36 -5 35 119 36 64 1 81 4 92 19
15 20 41 17 83 -9 21 -14 22 -13 22 10 0 13 -6 29 -14 35 -17 14 -9 51 10 51
8 0 14 -7 14 -16 0 -9 7 -14 18 -12 12 3 16 12 14 31 -2 15 1 34 5 42 8 13 11
13 31 -1 12 -8 22 -26 22 -39 0 -13 5 -27 10 -30 6 -4 10 8 10 29 0 23 4 35
12 33 6 -1 14 7 16 17 3 14 0 17 -11 13 -18 -7 -29 14 -17 33 6 10 9 8 13 -6
3 -10 3 -1 0 21 -3 22 -11 43 -16 47 -6 3 -12 34 -13 68 -3 53 -1 60 10 45 12
-17 14 -16 27 13 12 28 22 34 54 32 3 -1 13 6 22 15 21 22 72 11 99 -22 23
-27 44 -24 44 5 0 14 2 14 9 3 7 -11 11 -10 19 4 7 14 21 18 57 17 27 0 59 4
72 9 20 7 25 5 32 -13 5 -14 10 -17 15 -10 4 7 16 12 27 12 10 0 19 4 19 9 0
15 29 21 53 12 12 -5 33 -5 46 0 18 7 27 5 36 -8 12 -16 14 -16 29 0 19 19 31
23 21 7 -3 -5 4 -10 16 -10 17 0 20 -4 16 -21 -4 -15 -2 -19 9 -15 7 3 13 2
13 -2 -1 -4 0 -10 1 -14 4 -13 7 -28 9 -39 0 -6 10 -8 21 -4 12 4 20 2 20 -6
0 -8 4 -8 16 2 13 10 17 10 25 -2 5 -8 9 -22 9 -32 0 -23 28 -52 50 -53 12 -1
15 5 12 24 -4 22 -3 23 16 13 11 -6 22 -16 24 -21 3 -11 32 -16 58 -9 11 3 17
-9 24 -43 7 -34 14 -48 26 -48 24 0 40 -21 40 -52 0 -21 5 -28 19 -28 10 0 24
6 31 14 21 27 60 0 60 -41 0 -19 -6 -23 -30 -23 -24 0 -30 4 -30 23 0 16 -3
18 -9 8 -5 -7 -13 -11 -19 -7 -10 6 -21 -23 -23 -64 -1 -23 -2 -23 -10 6 -10
33 -45 71 -56 60 -4 -4 -8 -35 -9 -70 0 -35 -5 -69 -9 -76 -5 -8 0 -19 13 -29
27 -21 28 -74 1 -66 -10 4 -26 2 -35 -3 -14 -8 -14 -10 1 -25 9 -9 14 -21 10
-27 -4 -6 5 -7 25 -4 25 5 30 3 30 -12 0 -11 3 -30 7 -43 5 -20 3 -22 -15 -17
-11 4 -23 2 -27 -4 -4 -6 4 -10 19 -10 16 0 26 -6 26 -14 0 -8 3 -21 6 -29 3
-9 -3 -17 -18 -21 -17 -4 -19 -8 -10 -14 17 -11 21 -64 5 -69 -6 -2 -21 5 -32
16 -19 19 -19 19 -26 -7 -5 -20 -8 -23 -16 -11 -11 18 -11 1 1 -26 5 -11 9
-14 9 -7 1 16 39 15 70 -2 31 -17 12 -29 -34 -20 -33 6 -35 5 -35 -22 0 -23
-2 -26 -10 -14 -9 13 -11 13 -20 0 -11 -18 21 -55 56 -64 26 -7 33 -26 9 -26
-8 0 -15 5 -15 10 0 6 -11 10 -25 10 -29 0 -32 -16 -8 -42 15 -17 15 -18 -5
-18 -11 0 -37 9 -56 21 -38 22 -38 23 -50 -33 -6 -25 -8 -26 -42 -16 -20 5
-38 7 -42 4 -3 -3 3 -6 12 -6 10 0 16 -6 13 -12 -5 -17 -39 -11 -54 9 -10 13
-14 10 -29 -18 -13 -25 -14 -37 -5 -51 6 -10 11 -24 11 -31 0 -19 -36 -50 -49
-42 -6 3 -11 0 -11 -8 0 -19 -43 -57 -64 -57 -12 0 -16 -5 -12 -16 5 -13 1
-14 -24 -9 -21 5 -39 2 -55 -9 -23 -15 -55 -13 -55 5 0 5 -6 9 -14 9 -9 0 -16
17 -20 48 -9 64 -25 112 -38 112 -6 0 -7 -15 -3 -38 4 -28 2 -42 -9 -51 -11
-9 -16 -9 -21 0 -6 8 -10 8 -16 -2 -5 -9 -11 -10 -18 -4 -6 6 -4 24 5 50 7 22
14 48 14 58 0 26 -17 21 -24 -8 -4 -14 -11 -25 -16 -25 -6 0 -10 -17 -10 -38
0 -24 -7 -46 -20 -60 -11 -12 -20 -31 -20 -44 0 -19 -2 -20 -10 -8 -5 8 -7 30
-4 49 6 30 5 33 -15 26 -18 -5 -21 -2 -21 20 0 15 7 28 18 32 24 9 52 39 52
57 0 8 -5 27 -11 43 -9 25 -11 26 -21 10 -7 -14 -13 -16 -23 -7 -8 7 -19 9
-25 5 -6 -4 -10 9 -10 35 0 25 4 39 10 35 6 -3 10 -17 10 -31 0 -30 15 -31 25
-1 12 34 15 88 6 82 -13 -7 -21 20 -21 70 0 24 -5 45 -12 47 -7 3 -9 14 -3 34
6 26 8 27 15 9 4 -11 5 -26 3 -32 -3 -7 2 -13 10 -13 19 0 32 37 19 53 -6 7
-13 29 -17 50 -4 20 -11 37 -16 37 -5 0 -9 8 -9 18 0 10 -4 22 -9 27 -5 6 -11
21 -13 34 -1 14 -9 26 -17 29 -11 4 -13 -6 -9 -47 3 -28 2 -51 -1 -51 -4 0
-15 10 -26 23 -18 20 -20 21 -23 3 -2 -10 2 -38 8 -62 7 -25 10 -47 8 -50 -3
-3 -9 11 -12 31 -6 29 -12 37 -36 41 -16 4 -31 13 -34 21 -4 9 -13 12 -26 8
-10 -3 -28 -1 -40 5 -18 10 -20 8 -20 -25 0 -29 4 -35 20 -35 29 0 28 5 50
-209 10 -88 20 -132 20 -84 0 12 8 24 17 27 10 4 13 10 8 14 -21 15 -34 59
-31 102 2 25 0 50 -6 57 -6 8 -3 10 11 6 22 -6 27 -27 22 -91 -1 -19 5 -44 13
-56 8 -13 16 -38 18 -57 4 -44 22 -40 26 6 2 19 8 35 13 35 6 0 8 -14 5 -32
-3 -18 -8 -54 -11 -80 -5 -39 -10 -48 -26 -48 -22 0 -23 -4 -8 -32 10 -19 12
-18 27 13 28 54 41 48 44 -23 2 -43 7 -62 15 -61 20 4 25 -40 9 -72 -9 -17
-16 -38 -16 -47 0 -10 -4 -18 -10 -18 -5 0 -10 -9 -10 -19 0 -11 -6 -32 -14
-48 -8 -15 -25 -54 -40 -85 -14 -32 -29 -58 -33 -58 -5 0 -19 -10 -33 -23 -14
-12 -78 -63 -144 -112 -150 -112 -285 -233 -355 -316 -30 -35 -60 -68 -66 -74
-5 -5 -33 -37 -60 -70 -28 -33 -91 -107 -140 -165 -50 -58 -109 -127 -130
-155 -22 -27 -71 -86 -110 -131 -96 -111 -301 -353 -377 -445 -35 -41 -82 -98
-105 -125 -94 -111 -224 -269 -318 -390 -55 -70 -140 -175 -190 -234 -49 -58
-103 -124 -120 -145 -28 -36 -94 -114 -105 -125 -3 -3 -37 -45 -74 -95 -38
-49 -75 -97 -83 -105 -8 -8 -24 -29 -36 -46 -30 -43 -109 -146 -121 -160 -6
-6 -18 -22 -26 -34 -8 -13 -46 -64 -85 -114 -38 -50 -83 -109 -100 -131 -16
-22 -33 -44 -37 -50 -21 -26 -65 -85 -78 -105 -8 -13 -23 -30 -32 -39 -9 -9
-28 -33 -42 -54 l-26 -38 0 -1901 c0 -1842 1 -1900 18 -1896 11 3 23 -2 29
-11 6 -9 32 -27 59 -41 27 -14 54 -29 60 -35 6 -5 26 -19 46 -29 26 -14 34
-24 30 -38 -3 -12 1 -18 12 -18 9 0 43 -28 76 -62 33 -34 60 -58 60 -53 0 4 9
-3 20 -16 31 -37 84 -89 92 -89 5 0 20 -13 35 -30 14 -16 33 -30 42 -30 9 0
33 -15 53 -33 20 -17 55 -48 78 -67 23 -19 44 -42 48 -52 14 -34 114 -138 133
-138 11 0 18 -4 14 -9 -3 -5 8 -16 24 -24 17 -8 31 -11 33 -6 2 5 15 -2 30
-16 15 -14 32 -25 38 -25 5 0 10 -7 10 -15 0 -8 7 -15 15 -15 9 0 20 -11 26
-23 6 -13 25 -32 42 -42 18 -10 38 -27 45 -37 7 -10 20 -18 28 -18 8 0 14 -7
14 -15 0 -9 8 -19 17 -22 10 -4 38 -26 63 -50 24 -24 48 -43 52 -43 4 0 28
-16 54 -35 25 -19 52 -35 60 -35 14 0 75 -30 121 -60 13 -8 23 -20 23 -27 0
-7 4 -13 9 -13 5 0 31 -18 57 -40 27 -22 54 -40 60 -40 6 0 17 -7 24 -15 7 -8
21 -15 32 -15 11 0 36 -19 56 -42 98 -113 116 -128 151 -128 19 0 43 8 53 17
15 13 21 14 31 4 9 -9 9 -14 -3 -21 -8 -5 -11 -10 -6 -10 5 0 18 7 27 16 17
15 21 15 54 0 19 -9 35 -21 35 -25 0 -5 15 -15 33 -22 17 -7 45 -27 60 -44 23
-25 29 -28 37 -15 6 10 10 11 10 3 0 -7 6 -13 14 -13 7 0 19 -7 26 -15 7 -8
19 -15 27 -15 8 0 28 -11 45 -25 35 -29 53 -32 44 -7 -4 9 5 4 18 -13 14 -16
25 -36 26 -44 0 -18 45 -6 91 25 44 30 106 32 142 4 33 -26 52 -96 36 -130
-12 -26 -18 -80 -8 -81 5 -1 13 -2 19 -3 5 0 20 -16 34 -34 13 -18 41 -51 63
-72 21 -22 51 -55 66 -75 16 -19 35 -35 42 -35 7 0 16 -7 19 -16 4 -9 9 -14
13 -11 3 4 18 -2 33 -13 16 -11 43 -20 62 -20 18 0 40 -4 47 -9 17 -11 51 3
64 25 4 8 14 14 21 14 12 0 24 31 62 163 14 51 19 57 38 52 11 -2 15 -2 9 1
-20 9 -17 74 3 74 12 0 15 6 10 25 -6 24 9 36 16 13 2 -6 13 -12 24 -13 10 -1
31 -6 47 -10 17 -4 33 -3 42 5 12 10 16 9 21 -4 3 -9 10 -16 16 -16 5 0 7 4 4
8 -9 15 12 35 29 29 10 -5 14 -13 11 -25 -4 -11 2 -28 13 -40 21 -25 31 -28
31 -9 0 7 11 23 24 35 l25 21 11 -34 c6 -19 9 -39 5 -45 -9 -15 17 -12 39 5
10 8 15 19 10 26 -4 8 -3 10 4 5 7 -4 12 -14 12 -22 0 -8 4 -14 9 -14 11 0 19
120 8 127 -4 2 -5 13 -2 24 4 12 1 21 -9 25 -9 3 -16 15 -16 25 0 11 -4 28
-10 39 -5 11 -14 28 -19 39 -6 12 -6 22 2 30 9 9 8 15 -6 22 -9 6 -15 15 -11
21 4 6 -1 8 -15 3 -17 -5 -21 -2 -21 14 0 12 -4 21 -9 21 -15 0 -108 96 -116
119 -3 11 -13 21 -21 21 -8 0 -14 6 -14 14 0 7 -9 16 -20 19 -14 3 -20 14 -20
32 0 15 -14 44 -31 66 -17 21 -27 43 -24 49 4 6 1 17 -5 25 -7 8 -9 15 -4 15
11 0 -32 39 -68 63 -15 9 -37 16 -50 14 -14 -1 -22 3 -21 10 2 7 -2 13 -8 13
-6 0 -25 11 -43 25 -18 14 -37 25 -43 25 -5 0 -20 9 -33 20 -13 11 -32 20 -42
20 -10 0 -21 7 -24 15 -3 8 -21 17 -40 21 -19 3 -33 9 -30 11 7 8 -62 53 -80
53 -8 0 -27 11 -42 25 -15 14 -32 25 -39 25 -6 0 -15 9 -18 20 -3 11 -13 20
-21 20 -8 0 -14 7 -14 15 0 8 -6 15 -12 15 -7 0 -37 23 -66 50 -29 28 -62 50
-73 50 -24 0 -72 25 -107 58 -14 12 -33 22 -43 22 -11 0 -19 4 -19 9 0 5 -16
15 -35 21 -20 6 -52 27 -72 46 -19 19 -41 34 -47 34 -6 1 -29 19 -51 40 -22
22 -45 40 -52 40 -6 0 -14 9 -18 19 -3 11 -15 23 -26 26 -10 4 -19 11 -19 16
0 5 -7 9 -15 9 -8 0 -15 5 -15 10 0 6 -7 13 -15 16 -8 4 -54 44 -102 90 -48
46 -93 84 -101 84 -22 0 -92 62 -92 81 0 29 -22 69 -38 69 -11 0 -12 3 -3 14
6 7 8 21 5 31 -7 16 -2 17 44 13 29 -3 60 -12 70 -21 10 -9 34 -20 53 -23 19
-3 54 -15 79 -26 25 -10 59 -25 75 -32 17 -7 50 -22 75 -33 25 -11 72 -31 105
-43 33 -13 105 -44 160 -70 202 -96 234 -108 545 -220 51 -19 124 -52 130 -60
3 -4 19 -10 35 -13 17 -3 50 -10 74 -15 53 -12 71 -7 71 19 0 10 6 19 14 19 7
0 27 7 42 15 16 8 36 13 44 10 9 -3 19 4 25 18 8 17 22 24 64 30 40 7 55 14
58 28 3 10 13 20 22 21 9 0 21 2 26 2 6 1 28 14 50 29 25 17 53 27 76 27 21 0
47 8 62 20 14 11 32 17 42 14 8 -4 15 -3 14 2 -4 22 4 31 39 43 44 17 104 60
97 71 -3 5 2 15 10 23 8 9 15 23 15 31 0 9 5 16 10 16 6 0 10 9 10 20 0 11 7
23 15 26 8 4 13 10 10 14 -5 8 88 59 115 64 8 1 38 9 65 18 110 35 163 48 235
58 69 10 117 28 225 80 22 11 48 20 57 20 9 0 18 3 20 8 5 12 65 42 85 42 10
0 59 21 108 46 84 43 94 46 153 42 54 -3 66 -8 88 -33 22 -26 31 -29 102 -33
82 -5 164 11 244 47 24 10 92 38 152 62 60 24 121 54 135 67 14 13 35 32 46
41 11 9 31 30 43 48 19 27 21 35 10 58 -11 25 -16 26 -53 20 -22 -3 -44 -10
-50 -16 -11 -11 -65 -12 -65 0 0 5 -9 11 -21 14 -12 3 -18 10 -15 16 7 11 -28
34 -38 24 -6 -6 -10 13 -6 32 1 6 -2 7 -6 3 -4 -4 -19 1 -34 12 -15 11 -31 16
-35 12 -5 -4 -5 -1 -1 6 5 8 -2 16 -20 22 -15 6 -24 13 -21 16 10 11 -45 58
-71 60 -15 1 -30 3 -35 3 -4 1 -6 7 -5 13 2 9 -7 11 -27 9 -49 -7 -67 -5 -141
16 -40 11 -85 18 -100 16 -20 -3 -36 2 -52 17 -12 11 -22 18 -22 14 0 -4 -11
5 -25 20 -13 14 -22 33 -19 41 4 9 0 15 -10 15 -9 0 -16 8 -16 18 0 10 -5 23
-11 29 -6 6 -8 17 -4 23 6 9 9 9 15 0 9 -15 41 15 34 33 -7 19 48 46 97 46 75
1 104 -3 115 -18 8 -10 23 -12 56 -8 32 4 51 2 67 -9 17 -13 25 -13 36 -4 12
10 18 10 30 0 12 -10 15 -10 15 0 0 7 8 10 20 7 13 -3 24 1 30 14 6 10 17 19
25 19 7 0 20 6 27 13 7 6 31 13 53 15 22 1 59 12 83 23 40 20 49 20 108 6 20
-5 83 -60 78 -68 -10 -17 39 1 67 26 17 14 34 25 39 25 5 0 12 10 15 23 9 28
44 67 62 67 8 0 13 12 13 30 0 17 5 30 11 30 7 0 6 9 -4 24 -14 21 -14 25 1
40 13 13 14 16 2 16 -9 0 -11 3 -5 8 6 4 15 16 22 28 9 17 8 23 -8 34 -12 10
-15 18 -8 26 5 6 7 18 3 27 -3 8 0 18 6 22 9 6 9 10 -1 16 -8 5 -14 30 -15 64
-1 46 3 59 20 73 11 9 34 35 50 57 17 22 33 42 36 45 15 14 38 59 45 90 4 19
12 38 18 42 6 4 -2 10 -19 13 -16 4 -45 13 -64 21 -19 8 -56 19 -82 24 -119
25 -145 31 -219 55 -44 14 -99 35 -123 48 l-42 22 35 19 c21 11 61 20 94 22
32 1 91 12 130 24 40 12 79 24 87 25 51 11 141 50 184 80 57 38 120 58 175 54
46 -3 201 22 201 33 0 16 61 7 102 -16 40 -21 84 -80 104 -138 4 -10 12 -18
19 -18 7 0 15 -4 17 -8 2 -4 20 -18 41 -31 20 -12 37 -27 37 -32 0 -6 5 -7 11
-3 6 3 22 -6 35 -22 15 -19 24 -24 24 -14 0 12 2 12 10 -2 11 -18 3 -51 -11
-43 -5 3 -11 -6 -15 -20 -3 -14 -10 -25 -14 -25 -4 0 -13 -12 -18 -28 -11 -30
-70 -99 -174 -204 -38 -38 -68 -73 -68 -79 0 -6 -19 -35 -42 -65 -24 -30 -43
-58 -43 -63 0 -5 -17 -28 -38 -51 -20 -23 -37 -47 -37 -54 0 -7 -10 -22 -22
-33 -35 -32 -62 -66 -75 -96 -7 -15 -30 -46 -51 -69 -21 -24 -50 -61 -65 -83
-23 -36 -26 -45 -17 -75 15 -53 42 -98 64 -108 12 -6 60 -28 107 -51 48 -23
95 -41 105 -41 11 0 29 -7 40 -15 12 -8 36 -17 53 -20 18 -3 43 -12 55 -20 12
-8 25 -13 28 -10 3 3 11 -1 18 -10 7 -8 17 -15 22 -15 6 0 33 -11 60 -25 27
-14 54 -23 58 -20 5 3 15 -2 23 -10 9 -8 21 -15 27 -15 7 0 24 -7 38 -15 23
-12 137 -56 265 -102 21 -7 65 -27 97 -43 33 -17 66 -30 75 -30 8 0 36 -11 63
-24 226 -114 229 -114 315 43 55 99 401 705 534 936 42 72 89 155 106 185 16
30 33 60 37 65 4 6 23 39 42 75 20 36 73 130 118 210 46 80 130 228 188 330
193 340 384 674 417 730 17 30 73 127 122 215 50 88 100 176 111 195 11 19 58
103 105 185 46 83 112 196 146 253 33 57 61 105 61 107 0 4 205 363 220 385 6
8 13 22 17 30 4 8 16 31 28 50 20 32 77 133 114 204 9 17 20 35 24 40 4 6 58
99 119 206 61 107 174 305 253 440 78 135 153 265 166 290 14 25 37 64 52 87
15 24 27 44 27 47 0 4 123 220 140 246 6 8 13 22 17 30 3 8 50 92 103 185 53
94 107 188 119 210 12 22 30 54 40 70 10 17 29 50 43 75 61 108 71 126 89 151
10 15 23 37 29 50 5 13 14 31 20 39 21 33 120 201 120 204 0 2 23 43 52 92 94
164 158 277 158 281 0 2 13 23 28 46 15 23 41 67 57 97 53 100 197 334 232
378 19 23 40 42 48 42 7 0 15 4 17 9 2 5 17 6 35 4 27 -4 32 -10 35 -40 6 -50
-8 -143 -27 -179 -8 -16 -15 -34 -15 -39 0 -12 -53 -116 -138 -273 -34 -62
-62 -117 -62 -122 0 -6 -4 -10 -9 -10 -5 0 -21 -26 -36 -57 -14 -32 -29 -60
-33 -63 -4 -3 -19 -30 -34 -60 -41 -81 -45 -86 -144 -186 -61 -61 -100 -109
-118 -147 -14 -31 -26 -60 -26 -66 0 -5 -11 -32 -25 -59 -15 -31 -25 -67 -25
-93 0 -72 -60 -178 -155 -274 -50 -49 -96 -107 -120 -150 -21 -38 -47 -86 -58
-105 -11 -19 -29 -51 -40 -70 -10 -19 -26 -48 -36 -65 -9 -16 -39 -70 -65
-120 -27 -49 -55 -97 -61 -105 -7 -8 -31 -49 -53 -91 -23 -42 -54 -98 -71
-125 -73 -118 -110 -208 -117 -279 -4 -38 -10 -74 -14 -80 -5 -5 -24 -39 -43
-75 -19 -36 -43 -81 -53 -100 -11 -19 -22 -37 -25 -40 -3 -3 -11 -20 -19 -39
-7 -18 -35 -70 -62 -114 -26 -44 -48 -85 -48 -92 0 -6 -5 -16 -11 -22 -14 -14
-35 -49 -49 -83 -5 -14 -15 -32 -20 -40 -6 -8 -13 -23 -16 -32 -4 -10 -10 -18
-15 -18 -5 0 -9 -6 -9 -14 0 -8 -4 -16 -8 -18 -4 -1 -22 -30 -38 -63 -49 -95
-106 -197 -128 -230 -30 -42 -44 -66 -61 -100 -8 -16 -25 -48 -39 -70 -14 -22
-39 -67 -55 -100 -17 -33 -44 -82 -61 -110 -16 -27 -33 -57 -36 -65 -4 -8 -16
-27 -26 -42 -10 -14 -18 -33 -18 -42 0 -9 -3 -16 -7 -16 -5 0 -17 -19 -28 -43
-11 -23 -22 -44 -26 -47 -6 -5 -35 -57 -112 -200 -22 -41 -45 -81 -51 -89 -15
-19 -33 -50 -56 -98 -12 -24 -25 -43 -30 -43 -6 0 -10 -9 -10 -19 0 -11 -5
-23 -10 -26 -6 -3 -18 -23 -28 -43 -29 -58 -73 -135 -87 -152 -7 -8 -16 -25
-19 -37 -4 -11 -13 -27 -21 -33 -8 -7 -15 -21 -15 -31 0 -11 -4 -19 -8 -19 -5
0 -31 -44 -58 -98 -27 -53 -55 -101 -61 -105 -7 -4 -13 -19 -13 -32 0 -14 -5
-25 -10 -25 -6 0 -16 -12 -22 -27 -7 -16 -17 -35 -24 -43 -6 -8 -27 -44 -46
-80 -52 -96 -82 -148 -122 -214 -20 -33 -36 -64 -36 -70 0 -5 -6 -17 -14 -25
-8 -9 -31 -47 -52 -86 -20 -38 -45 -81 -54 -95 -10 -14 -25 -41 -34 -60 -15
-33 -31 -60 -49 -84 -10 -13 -112 -197 -138 -248 -11 -21 -24 -38 -29 -38 -6
0 -10 -11 -10 -25 0 -14 -4 -25 -8 -25 -5 0 -18 -19 -31 -42 -12 -24 -31 -56
-41 -73 -23 -36 -34 -56 -89 -160 -24 -44 -49 -87 -57 -96 -8 -8 -14 -21 -14
-27 0 -6 -13 -30 -29 -54 -16 -24 -45 -74 -66 -113 -21 -38 -46 -81 -55 -95
-9 -14 -32 -54 -51 -90 -18 -36 -48 -88 -66 -117 -18 -29 -33 -55 -33 -58 0
-4 -21 -41 -47 -83 -26 -42 -57 -97 -69 -122 -12 -26 -29 -52 -38 -59 -9 -7
-16 -18 -16 -23 0 -9 -96 -181 -189 -338 -11 -19 -34 -60 -51 -90 -43 -81 -86
-155 -139 -245 -27 -44 -64 -109 -85 -145 -45 -81 -56 -98 -78 -132 -10 -15
-18 -34 -18 -42 0 -8 -4 -16 -9 -18 -5 -1 -23 -30 -40 -63 -18 -33 -43 -78
-56 -100 -13 -22 -30 -51 -38 -65 -46 -83 -75 -133 -115 -200 -66 -111 -93
-158 -158 -277 -14 -27 -32 -55 -38 -63 -7 -8 -26 -40 -42 -70 -16 -30 -45
-80 -64 -110 -20 -30 -42 -68 -50 -85 -8 -16 -27 -49 -42 -71 -16 -23 -28 -46
-28 -51 0 -5 -15 -31 -32 -58 -18 -28 -39 -61 -46 -75 -7 -14 -21 -38 -32 -55
-11 -16 -25 -41 -32 -55 -7 -14 -20 -36 -29 -50 -9 -14 -29 -49 -45 -78 -16
-29 -34 -61 -39 -70 -6 -9 -49 -82 -96 -162 -48 -80 -101 -170 -118 -200 -40
-70 -50 -85 -84 -138 -15 -24 -27 -47 -27 -53 0 -5 -4 -9 -10 -9 -5 0 -10 -4
-10 -9 0 -14 -18 -52 -40 -86 -11 -16 -24 -39 -29 -50 -5 -11 -21 -37 -35 -58
-14 -21 -26 -40 -26 -42 0 -2 -25 -45 -55 -95 -30 -50 -55 -94 -55 -98 0 -4
-18 -33 -40 -65 -22 -31 -40 -60 -40 -63 0 -25 -128 -159 -195 -204 -79 -54
-95 -71 -95 -102 l0 -28 5100 0 c3999 0 5100 3 5100 12 0 20 -32 98 -40 98 -9
0 -30 55 -30 75 0 25 27 23 55 -3 16 -15 30 -21 32 -15 4 12 85 -22 91 -38 2
-5 9 -9 15 -10 7 0 34 -11 62 -24 30 -14 52 -19 56 -14 3 6 44 -9 96 -35 l89
-46 582 0 582 0 0 94 c0 67 -4 99 -14 108 -7 8 -17 25 -21 38 -7 21 -9 22 -20
7 -11 -15 -13 -15 -29 1 -16 16 -18 16 -32 -2 -14 -19 -14 -19 -14 2 0 19 -4
22 -27 17 -32 -5 -83 36 -83 69 0 19 -1 19 -17 4 -15 -16 -17 -16 -29 5 -7 12
-18 32 -23 44 -6 14 -16 20 -25 17 -9 -3 -17 3 -21 16 -4 13 -12 19 -21 16
-10 -4 -14 3 -14 27 0 31 0 31 -16 9 -17 -25 -39 -30 -30 -7 3 8 1 15 -5 15
-12 0 -39 25 -40 37 0 4 -14 19 -32 33 -17 14 -28 19 -24 12 5 -7 3 -12 -5
-12 -13 0 -68 62 -68 78 0 17 -41 51 -55 46 -18 -7 -32 41 -16 60 12 14 5 26
-16 26 -7 0 -13 -11 -13 -27 l-1 -28 -29 33 c-27 29 -36 60 -30 101 2 19 -22
32 -36 20 -8 -7 -15 -6 -19 2 -6 8 -10 7 -16 -2 -7 -11 -9 -10 -9 4 0 9 5 17
11 17 17 0 -33 37 -56 41 -16 4 -20 12 -20 46 0 23 -3 45 -7 49 -5 4 -8 2 -8
-4 0 -7 -5 -12 -10 -12 -6 0 -8 14 -6 33 3 17 6 41 8 52 2 12 -3 20 -12 20
-10 0 -14 -8 -12 -27 2 -16 -1 -28 -7 -28 -6 0 -11 -8 -11 -18 0 -23 -29 -64
-40 -57 -5 3 -7 19 -3 35 7 36 -2 38 -28 7 -25 -31 -25 -4 1 57 23 55 44 62
34 11 -4 -23 -2 -35 5 -35 6 0 11 11 11 24 0 14 5 28 10 31 6 4 8 11 5 16 -11
17 5 30 25 19 13 -7 19 -6 24 6 9 24 -3 37 -22 22 -12 -10 -16 -10 -19 0 -7
18 -21 15 -28 -8 -15 -49 -40 4 -26 55 5 20 13 29 24 27 14 -2 15 2 8 21 -6
14 -6 29 0 38 7 11 13 9 29 -11 l20 -25 0 24 c0 16 4 21 14 18 8 -3 31 -9 50
-13 20 -3 39 -10 42 -15 3 -5 9 -7 14 -4 5 3 11 1 15 -5 3 -5 23 -10 43 -10
44 0 52 -6 72 -43 8 -16 16 -24 18 -18 5 16 34 14 57 -4 11 -8 63 -48 116 -88
132 -103 125 -99 309 -160 91 -30 173 -58 183 -62 16 -7 17 38 17 862 l0 869
-32 42 c-18 23 -36 42 -40 42 -4 0 -8 7 -8 15 0 8 -9 20 -20 27 -12 7 -37 37
-57 66 -20 28 -42 52 -49 52 -8 0 -21 12 -30 27 -10 16 -38 49 -63 75 -73 74
-91 99 -91 128 0 23 -5 29 -30 34 -21 4 -34 14 -40 32 -6 15 -13 24 -17 20 -6
-6 -21 15 -42 59 -12 26 -47 55 -56 47 -3 -4 -10 0 -15 8 -5 8 -21 16 -34 17
-14 1 -36 12 -48 24 -13 12 -39 28 -58 36 -39 17 -134 86 -165 120 -11 13 -26
23 -32 23 -6 0 -17 14 -25 30 -12 28 -38 42 -38 20 0 -15 -26 -12 -42 4 -8 8
-23 15 -33 17 -9 2 -24 14 -33 27 -14 21 -13 22 15 22 16 0 38 -7 49 -15 28
-21 44 -18 44 10 0 26 -7 30 -89 40 -25 3 -49 9 -55 15 -5 5 -20 10 -31 10
-13 0 -33 15 -51 37 -16 20 -43 54 -61 75 -18 22 -35 53 -37 71 -6 37 -13 92
-22 162 -7 56 -19 76 -40 68 -9 -3 -14 2 -14 15 0 11 -7 25 -14 32 -8 6 -20
28 -27 48 -6 20 -24 51 -39 67 -38 41 -45 70 -26 100 9 13 16 30 16 38 0 24
47 38 88 28 20 -6 49 -13 63 -15 15 -3 46 -22 69 -41 23 -19 46 -35 51 -35 5
0 9 -6 9 -13 0 -8 22 -26 50 -41 28 -15 50 -31 50 -35 0 -4 12 -14 28 -21 15
-8 46 -29 68 -47 23 -18 44 -30 46 -27 3 2 20 -9 38 -26 18 -17 35 -29 37 -27
2 3 18 -10 36 -27 18 -17 61 -53 96 -81 35 -27 71 -57 81 -65 9 -8 23 -19 32
-25 49 -33 115 -84 139 -107 15 -14 42 -34 58 -44 17 -10 31 -24 31 -31 0 -7
6 -13 14 -13 8 0 28 -16 45 -35 17 -20 31 -33 31 -29 0 4 30 -25 68 -63 37
-38 75 -72 85 -76 9 -3 17 -13 17 -22 0 -8 7 -15 15 -15 8 0 15 -4 15 -9 0 -4
27 -37 60 -72 l60 -64 0 2900 c0 1635 -4 2906 -9 2914 -5 7 -14 11 -19 7 -6
-4 -16 3 -22 14 -6 11 -16 18 -22 14 -13 -8 -89 16 -83 27 3 4 -3 5 -13 2 -10
-2 -28 5 -41 16 -13 12 -30 21 -38 21 -7 0 -23 10 -35 22 -18 18 -34 23 -77
22 -29 0 -45 3 -35 7 13 4 2 9 -33 14 -33 4 -53 12 -53 20 0 7 -16 16 -35 19
-19 4 -34 11 -32 17 1 6 -16 12 -38 14 -38 3 -73 15 -105 34 -8 5 -24 12 -35
16 -16 5 -17 8 -5 16 12 9 12 10 -3 5 -11 -4 -31 2 -47 14 -16 11 -44 20 -64
20 -20 0 -36 5 -36 10 0 6 -12 10 -27 11 l-28 1 25 8 25 8 -25 1 c-14 1 -36
10 -50 21 -14 11 -30 20 -36 20 -7 0 -25 7 -40 15 -16 8 -38 15 -49 15 -17 0
-17 2 -5 10 12 8 11 10 -7 10 -12 0 -24 4 -28 9 -3 5 -27 17 -53 27 -79 28
-102 39 -102 46 0 3 -13 9 -29 13 -16 3 -32 13 -35 21 -3 9 -11 12 -17 9 -6
-4 -19 2 -30 14 -11 12 -25 21 -32 21 -9 0 -8 -3 1 -9 11 -6 11 -10 0 -19 -9
-7 -19 -8 -28 -1 -12 7 -13 11 -2 18 11 6 10 10 -3 15 -9 3 -26 6 -37 6 -11 0
-34 11 -50 26 -17 14 -37 23 -45 19 -9 -3 -27 8 -44 27 -15 18 -32 33 -36 33
-4 1 -26 5 -48 10 -22 4 -44 9 -50 9 -5 1 -20 5 -33 10 -19 6 -21 10 -11 22
11 13 9 14 -14 9 -34 -9 -78 2 -74 18 1 7 -11 13 -30 15 -18 2 -33 7 -33 13 0
5 -9 9 -20 9 -11 0 -20 5 -20 10 0 6 -6 10 -14 10 -8 0 -17 7 -20 16 -4 10
-15 14 -30 12 -17 -2 -35 7 -55 26 -17 16 -36 26 -44 23 -8 -3 -25 4 -37 15
-12 12 -32 22 -44 23 -11 1 -30 3 -41 5 -13 1 -15 3 -7 7 8 3 -12 16 -44 29
-31 13 -61 28 -65 35 -4 6 -12 8 -18 4 -7 -4 -23 0 -36 9 -13 9 -40 16 -60 16
-20 0 -41 4 -48 10 -60 49 -78 60 -96 60 -13 0 -26 10 -33 25 -6 14 -16 24
-22 23 -6 -1 -23 5 -37 15 -15 10 -50 20 -78 24 -28 3 -51 9 -51 13 0 4 -14
10 -30 14 -17 3 -29 11 -28 18 2 8 -7 13 -20 13 -12 0 -26 5 -30 11 -12 19
-96 67 -127 74 -16 3 -31 11 -31 18 -3 25 -5 27 -15 12 -8 -11 -12 -12 -16 -2
-2 6 -16 12 -30 12 -14 0 -31 6 -37 14 -9 13 -32 17 -143 28 -6 1 -9 7 -6 14
4 11 -28 27 -58 29 -3 0 -14 8 -24 18 -12 12 -26 16 -42 12 -16 -4 -25 -1 -29
10 -4 8 -15 15 -26 15 -26 0 -60 19 -76 42 -8 10 -19 17 -25 16 -7 -1 -24 6
-39 16 -23 15 -42 22 -69 25 -16 2 -14 70 2 118 33 92 22 149 -38 204 -30 27
-92 49 -140 49 -34 0 -100 -44 -126 -83 -9 -15 -17 -43 -17 -64 0 -49 58 -118
126 -152 49 -24 64 -37 64 -56 0 -6 -3 -6 -8 1 -4 5 -24 11 -46 12 -21 2 -54
9 -72 17 -38 16 -84 61 -84 81 0 8 -4 14 -10 14 -5 0 -10 7 -10 15 0 8 -4 15
-10 15 -5 0 -10 6 -10 13 0 23 -64 57 -109 57 -35 0 -41 3 -33 13 13 15 -6 35
-65 69 -18 11 -33 23 -33 28 0 4 -11 19 -25 34 -14 15 -25 33 -25 41 0 8 -8
19 -18 24 -10 5 -24 29 -31 53 -7 24 -18 50 -25 58 -7 8 -22 42 -35 75 -12 33
-34 85 -47 116 -13 31 -24 63 -24 71 0 8 -4 18 -9 23 -25 26 -60 214 -66 360
l-7 150 29 37 c41 54 102 73 228 72 142 -1 147 -3 638 -243 136 -66 250 -121
254 -121 8 0 188 -84 398 -185 94 -45 208 -100 255 -123 123 -58 301 -143 490
-235 91 -43 210 -101 265 -127 55 -26 179 -86 275 -132 274 -133 417 -202 525
-253 55 -26 150 -71 210 -100 61 -29 202 -97 315 -152 113 -55 231 -112 263
-127 32 -14 88 -43 125 -64 37 -21 94 -49 127 -62 60 -24 188 -84 256 -121 20
-10 42 -19 48 -19 8 0 11 943 11 3530 l0 3530 -8640 0 -8640 0 1 -3712z m5519
2455 c0 -5 20 -9 45 -10 92 -4 149 -87 111 -162 -9 -16 -16 -38 -16 -49 0 -10
-16 -36 -35 -58 -19 -21 -35 -35 -35 -31 0 5 -12 0 -27 -11 -16 -11 -49 -29
-75 -41 -26 -11 -49 -25 -53 -30 -3 -5 -30 -15 -60 -22 -30 -7 -62 -20 -71
-31 -10 -10 -26 -18 -36 -18 -10 0 -33 -7 -50 -16 -64 -33 -148 -56 -255 -68
-24 -3 -63 -15 -87 -26 -25 -11 -49 -20 -54 -20 -5 0 -29 -13 -53 -29 -24 -16
-47 -27 -52 -24 -4 2 -15 -1 -24 -9 -19 -15 -124 -18 -136 -3 -6 6 -10 6 -14
-2 -2 -7 -17 -13 -31 -12 l-27 1 25 8 25 8 -27 1 c-16 1 -28 8 -31 19 -3 12
-5 10 -7 -8 -2 -18 -5 -14 -9 15 -5 35 -2 44 24 71 18 19 45 34 67 38 36 7 88
43 88 62 0 5 15 16 33 24 17 7 41 22 51 32 11 10 23 18 28 18 4 0 8 7 8 15 0
9 8 19 18 22 9 4 23 15 30 25 46 63 224 160 372 202 25 7 70 30 99 52 34 24
71 41 100 45 25 4 62 12 81 17 45 13 60 14 60 5z m1319 -273 c8 4 19 7 25 5 6
-2 27 -6 46 -8 114 -14 304 -164 332 -262 13 -46 11 -77 -7 -122 -18 -43 -113
-166 -135 -175 -10 -4 -22 -13 -27 -20 -11 -18 -73 -61 -92 -65 -196 -32 -244
-49 -441 -147 -86 -43 -121 -54 -195 -65 -49 -7 -108 -17 -130 -22 -22 -5 -49
-11 -60 -13 -44 -8 -151 -49 -176 -67 -15 -10 -31 -19 -36 -19 -5 0 -25 -13
-44 -30 -34 -27 -68 -39 -158 -55 -19 -3 -41 -9 -50 -14 -9 -4 -43 -7 -76 -6
-33 0 -133 2 -223 3 l-162 2 -12 25 c-6 14 -17 25 -25 25 -7 0 -13 7 -13 15 0
8 -9 19 -20 25 -15 8 -20 20 -19 48 0 20 -2 76 -6 125 -6 82 -5 87 13 87 41 0
76 78 55 120 -42 83 21 132 184 144 44 4 105 14 134 23 30 9 59 18 64 19 6 1
27 9 48 18 21 9 42 14 47 11 13 -8 118 24 127 39 5 7 26 21 48 32 22 10 45 23
50 29 6 6 42 26 82 44 65 29 80 32 180 33 59 0 122 0 138 -1 17 -1 62 2 100 8
39 6 90 10 114 11 50 0 91 29 91 64 0 40 12 67 27 62 8 -3 11 -1 8 4 -3 6 -3
10 2 11 4 0 17 3 28 5 11 3 31 7 44 9 13 2 28 8 34 14 6 6 19 11 29 11 10 0
18 7 18 16 0 12 3 14 13 6 7 -6 18 -7 26 -2z m816 -781 c44 -11 94 -31 112
-45 17 -13 36 -24 42 -24 6 0 11 -4 11 -9 0 -5 17 -16 38 -24 46 -19 54 -28
77 -92 10 -27 29 -60 43 -73 22 -21 26 -22 41 -8 38 34 98 5 73 -35 -8 -13 -9
-19 -1 -19 26 0 -5 -19 -41 -25 -29 -5 -40 -12 -40 -25 0 -9 -20 -38 -45 -62
-25 -25 -45 -43 -45 -40 0 3 -6 -1 -12 -9 -22 -26 -110 -94 -158 -121 -104
-59 -127 -71 -165 -85 -56 -21 -176 -51 -269 -68 -43 -8 -97 -25 -120 -39 -22
-13 -93 -51 -157 -85 -127 -67 -244 -100 -352 -101 -40 0 -67 -6 -85 -18 -15
-10 -47 -27 -72 -37 -69 -29 -87 -43 -105 -80 -12 -26 -13 -40 -5 -54 9 -18
17 -20 75 -14 46 4 65 2 65 -6 0 -7 21 -11 56 -11 49 0 89 -11 104 -29 14 -17
89 -25 148 -16 78 12 99 36 53 59 -34 18 -46 42 -24 50 9 4 64 6 122 5 58 0
119 4 134 10 43 16 92 13 109 -6 23 -29 40 -73 26 -73 -6 0 -3 -9 8 -21 12
-13 27 -19 41 -16 13 2 23 0 23 -4 0 -5 14 -9 31 -9 l31 0 -32 40 c-17 21 -46
45 -65 52 -66 23 -29 55 42 36 21 -5 63 -13 93 -18 30 -4 109 -18 175 -30 76
-14 168 -24 250 -25 79 -2 152 -9 185 -18 37 -10 77 -14 121 -10 84 7 110 1
155 -39 55 -49 77 -108 69 -188 -16 -166 -98 -239 -374 -334 -58 -20 -114 -36
-126 -36 -11 0 -25 -4 -30 -9 -14 -13 -117 -24 -200 -21 -38 2 -99 3 -134 2
-43 0 -69 4 -78 14 -8 8 -19 12 -24 9 -5 -4 -9 -2 -9 3 0 5 -30 2 -67 -5 -115
-25 -185 -33 -264 -32 -55 0 -79 -4 -88 -15 -7 -8 -27 -18 -44 -21 -35 -7 -95
-34 -113 -51 -10 -9 -71 -25 -149 -40 -11 -2 -36 -17 -55 -35 -139 -125 -475
-338 -573 -363 -24 -6 -67 -37 -157 -116 -84 -74 -336 -250 -358 -250 -5 0
-19 -11 -32 -25 -13 -14 -28 -25 -33 -25 -5 0 -28 -13 -51 -28 -22 -15 -63
-38 -91 -51 -27 -13 -80 -43 -116 -68 -50 -33 -79 -45 -115 -49 -101 -9 -109
-12 -122 -46 -9 -26 -14 -30 -24 -20 -10 10 -23 2 -64 -42 -50 -54 -106 -88
-132 -79 -7 3 -20 -1 -29 -9 -14 -11 -16 -11 -8 2 6 11 3 10 -12 -3 -30 -26
-79 -13 -92 24 -13 39 -41 39 -41 0 0 -20 6 -30 20 -34 11 -3 20 -13 20 -22 0
-12 -4 -14 -17 -7 -11 6 -28 5 -50 -5 -19 -7 -38 -11 -43 -8 -6 4 -10 2 -10
-3 0 -6 -11 -9 -25 -8 -14 0 -25 6 -25 11 0 6 -4 4 -9 -4 -7 -12 -13 -12 -40
0 -17 8 -31 17 -31 21 0 5 -8 8 -19 8 -20 0 -45 23 -34 33 12 13 -16 33 -44
31 -15 -1 -34 -3 -42 -3 -11 -1 -11 -4 -1 -16 7 -8 10 -15 6 -15 -6 0 -32 25
-55 53 -12 15 -11 17 13 15 14 -1 28 -8 30 -15 7 -17 26 -17 26 1 0 13 -27 26
-60 30 -9 0 -16 14 -18 34 -3 25 1 32 14 32 16 0 15 2 -3 23 -23 24 -19 52 11
76 14 12 16 11 17 -5 1 -11 1 -23 0 -28 -2 -12 31 -35 51 -36 25 0 87 -33 88
-46 0 -17 27 -37 34 -26 8 14 -36 55 -89 83 -25 13 -45 28 -45 33 0 5 6 4 12
-1 7 -5 27 -10 43 -12 17 -1 34 -7 40 -12 14 -14 25 -11 25 6 0 9 -7 18 -15
21 -22 9 -18 22 8 27 21 3 21 4 -5 15 -35 15 -37 36 -3 30 30 -6 43 7 15 15
-12 3 -20 14 -20 25 0 12 -10 28 -22 36 l-22 16 21 0 c28 0 40 20 19 32 -9 5
-16 18 -16 29 0 11 -7 22 -16 26 -10 4 -14 13 -10 28 4 14 0 28 -10 36 -14 12
-14 14 1 25 22 16 11 34 -21 34 -13 0 -24 5 -24 11 0 7 -8 18 -17 25 -16 12
-16 15 -3 24 13 9 13 10 0 11 -8 1 -22 1 -32 0 -9 -1 -19 3 -23 9 -3 5 -15 10
-26 10 -10 0 -19 5 -19 10 0 6 15 10 33 10 30 1 31 2 13 15 -19 14 -18 15 5
24 13 5 27 7 30 5 4 -2 10 4 14 13 3 10 1 19 -4 21 -15 5 -14 21 4 39 8 8 13
19 10 24 -10 15 -25 10 -25 -8 0 -9 -2 -14 -5 -11 -3 3 -2 19 1 37 6 28 8 30
19 14 11 -15 13 -10 12 34 -2 62 11 80 43 63 26 -14 38 -6 20 15 -10 12 -10
15 4 15 10 0 26 -5 36 -10 22 -12 70 -3 70 12 0 5 -9 12 -19 15 -27 7 -34 30
-13 42 16 9 15 11 -3 25 -11 8 -26 16 -32 16 -18 0 -16 19 2 26 25 10 17 34
-11 34 -31 0 -28 23 4 28 14 2 22 -2 22 -12 0 -19 37 -31 54 -17 10 8 17 7 26
-4 11 -13 15 -13 21 -3 6 9 9 7 9 -7 1 -18 2 -18 11 3 5 13 13 20 19 17 5 -3
10 -3 10 2 0 4 20 9 44 11 31 1 45 -2 50 -13 3 -8 10 -15 17 -15 6 0 9 6 6 14
-7 16 36 41 57 33 8 -3 30 -2 47 3 24 7 35 6 41 -3 11 -18 42 17 44 51 1 15 3
29 3 31 1 2 8 -2 16 -9 13 -11 15 -8 15 13 0 19 6 26 23 29 15 2 23 11 25 30
2 14 10 32 18 38 8 7 14 19 14 26 0 8 9 14 19 14 10 0 22 8 25 17 5 12 9 14
18 5 16 -16 28 -15 28 3 0 8 -6 15 -12 15 -7 0 -13 13 -14 30 -1 17 3 30 7 30
5 0 9 11 9 24 0 13 7 27 16 30 9 3 14 12 11 20 -3 7 0 19 6 25 6 6 7 11 3 11
-5 0 -3 7 4 15 10 12 9 15 -6 15 -19 1 -19 1 0 15 12 9 25 11 35 6 9 -5 22 -6
30 -3 8 2 20 -3 27 -12 20 -28 81 -12 87 22 3 15 2 32 -3 37 -4 6 -6 18 -5 28
2 9 0 17 -5 17 -11 0 -1 82 11 95 6 6 32 9 60 9 37 -1 49 2 49 13 0 11 5 9 18
-7 19 -23 52 -19 52 7 0 8 5 13 11 11 6 -2 10 -7 9 -12 -1 -4 7 -15 18 -24 10
-9 22 -26 26 -37 3 -11 19 -28 36 -37 16 -9 36 -30 42 -45 21 -47 30 -52 118
-69 142 -28 150 -29 150 -9 0 10 7 15 18 13 11 -2 18 4 20 20 2 12 8 22 13 22
5 0 9 7 9 16 0 11 6 14 20 9 26 -8 33 11 34 92 0 59 2 63 23 63 13 0 23 6 23
14 0 8 9 17 19 21 16 5 17 9 7 30 -6 14 -14 25 -18 25 -5 0 -8 5 -8 10 0 6 -8
20 -19 31 -16 17 -20 18 -31 5 -9 -11 -17 -13 -30 -6 -10 6 -32 10 -49 10 -16
0 -32 6 -34 13 -3 7 -6 5 -6 -5 -1 -18 -17 -23 -45 -12 -23 9 -20 25 15 72 34
47 33 72 -5 72 -14 0 -33 10 -44 25 -11 14 -33 27 -48 30 -16 2 -46 7 -66 10
-29 5 -38 11 -38 26 0 11 -6 22 -14 25 -10 4 -12 16 -9 45 4 25 2 39 -6 39
-22 0 -13 87 14 126 14 20 26 44 26 53 5 63 3 77 -14 94 -10 10 -19 34 -20 57
-1 35 4 44 47 85 l48 45 92 -5 c50 -2 114 -8 142 -13 59 -10 105 -8 142 6 39
15 151 26 281 27 96 1 115 4 126 19 7 9 29 22 49 27 20 5 36 16 36 23 0 8 20
17 52 22 38 6 55 15 63 30 6 11 16 19 24 16 7 -2 17 1 20 7 5 8 15 9 32 3 14
-6 34 -6 47 -1 24 9 82 -12 82 -30 0 -5 15 -14 33 -20 38 -13 75 1 138 51 30
24 40 27 61 19 23 -9 25 -8 20 11 -3 14 -1 19 6 14 26 -16 30 7 6 41 -33 49
-20 62 69 64 41 1 70 6 75 14 11 18 189 52 252 47 30 -2 91 -12 135 -23z
m-2970 -1929 c3 -5 1 -10 -4 -10 -6 0 -11 5 -11 10 0 6 2 10 4 10 3 0 8 -4 11
-10z m-948 -262 c-3 -8 -6 -5 -6 6 -1 11 2 17 5 13 3 -3 4 -12 1 -19z m463
-102 c0 -3 -4 -8 -10 -11 -5 -3 -10 -1 -10 4 0 6 5 11 10 11 6 0 10 -2 10 -4z
m20 -36 c0 -5 -4 -10 -10 -10 -5 0 -10 5 -10 10 0 6 5 10 10 10 6 0 10 -4 10
-10z m-88 -58 c15 3 28 1 28 -2 0 -8 -121 -23 -127 -16 -3 2 5 14 17 26 19 19
22 19 37 4 10 -10 27 -14 45 -12z m-33 -63 c-8 -4 -19 -3 -27 3 -11 9 -9 14
10 24 19 11 24 10 26 -3 2 -9 -2 -19 -9 -24z m58 9 c-3 -8 -6 -5 -6 6 -1 11 2
17 5 13 3 -3 4 -12 1 -19z m-19 -144 c-9 -9 -21 -13 -27 -10 -20 13 -11 26 16
26 25 0 26 -1 11 -16z m116 -3 c3 -4 3 -11 0 -14 -8 -7 -44 4 -44 14 0 12 37
12 44 0z m-1839 -101 c3 -5 1 -10 -4 -10 -6 0 -11 5 -11 10 0 6 2 10 4 10 3 0
8 -4 11 -10z m1861 -104 c10 -21 9 -24 -12 -22 -13 0 -19 5 -14 10 5 5 6 15 3
22 -9 24 11 15 23 -10z m-143 -134 c-21 -5 -35 11 -27 31 5 15 8 14 24 -6 16
-19 16 -22 3 -25z m-73 18 c0 -5 -2 -10 -4 -10 -3 0 -8 5 -11 10 -3 6 -1 10 4
10 6 0 11 -4 11 -10z m-921 -74 c0 -7 -2 -6 -6 2 -2 6 -11 12 -19 12 -9 0 -12
5 -9 10 8 13 35 -6 34 -24z m956 -35 c3 -5 1 -12 -5 -16 -5 -3 -10 1 -10 9 0
18 6 21 15 7z m-988 -23 c-3 -8 -6 -5 -6 6 -1 11 2 17 5 13 3 -3 4 -12 1 -19z
m1045 5 c20 -24 29 -65 18 -83 -7 -12 -12 -11 -30 5 -18 17 -19 21 -6 30 13
10 12 13 -4 23 -11 7 -17 18 -14 27 8 20 17 19 36 -2z m-2145 -45 c-3 -7 -5
-2 -5 12 0 14 2 19 5 13 2 -7 2 -19 0 -25z m1101 -53 c0 -14 -4 -28 -9 -31 -5
-3 -9 11 -9 31 0 20 4 34 9 31 5 -3 9 -17 9 -31z m997 -13 c-3 -3 -11 0 -18 7
-9 10 -8 11 6 5 10 -3 15 -9 12 -12z m-116 -5 c6 -8 8 -16 5 -20 -10 -9 -34 4
-34 19 0 18 14 18 29 1z m-1959 -47 c0 -5 -4 -10 -10 -10 -5 0 -10 5 -10 10 0
6 5 10 10 10 6 0 10 -4 10 -10z m1090 0 c0 -5 -4 -10 -9 -10 -5 0 -11 -10 -14
-22 -3 -20 -4 -21 -11 -5 -5 10 -3 23 4 32 14 17 30 20 30 5z m1150 -20 c0 -5
-2 -10 -4 -10 -3 0 -8 5 -11 10 -3 6 -1 10 4 10 6 0 11 -4 11 -10z m-2186 -65
c5 -22 4 -26 -4 -15 -5 8 -10 24 -10 34 0 26 6 18 14 -19z m-13 -78 c-7 -7
-12 -5 -17 7 -4 11 -1 21 7 27 17 11 26 -18 10 -34z m1689 33 c0 -5 -4 -10
-10 -10 -5 0 -10 5 -10 10 0 6 5 10 10 10 6 0 10 -4 10 -10z m-1739 -13 c-1
-12 -15 -9 -19 4 -3 6 1 10 8 8 6 -3 11 -8 11 -12z m-545 -104 c-10 -10 -19 5
-10 18 6 11 8 11 12 0 2 -7 1 -15 -2 -18z m-29 -25 c-3 -7 -5 -2 -5 12 0 14 2
19 5 13 2 -7 2 -19 0 -25z m1827 -14 c24 -9 19 -19 -9 -19 -14 0 -25 6 -25 13
0 13 10 15 34 6z m-1857 -116 c-3 -8 -6 -5 -6 6 -1 11 2 17 5 13 3 -3 4 -12 1
-19z m10 -40 c-3 -8 -6 -5 -6 6 -1 11 2 17 5 13 3 -3 4 -12 1 -19z m11636
-295 c-7 -2 -21 -2 -30 0 -10 3 -4 5 12 5 17 0 24 -2 18 -5z m357 -183 c0 -5
-4 -10 -10 -10 -5 0 -10 5 -10 10 0 6 5 10 10 10 6 0 10 -4 10 -10z m-3770
-34 c1 5 7 -2 14 -15 13 -24 8 -58 -17 -106 -14 -26 -17 -125 -5 -145 6 -10 4
-37 -7 -80 -68 -267 -68 -267 -56 -388 18 -174 -1 -211 -111 -222 -46 -4 -100
-19 -145 -38 -40 -17 -98 -36 -129 -41 -53 -10 -91 -28 -159 -76 -63 -44 -130
-64 -223 -66 -44 -1 -65 3 -77 15 -11 11 -22 13 -33 7 -9 -5 -26 -5 -39 0 -13
5 -23 5 -23 0 0 -13 -49 -20 -54 -7 -2 6 -5 1 -5 -11 -1 -14 -6 -21 -14 -17
-8 3 -20 -2 -27 -11 -7 -8 -9 -15 -4 -16 5 0 0 -4 -11 -9 -29 -12 -98 -12 -90
0 3 6 -1 10 -10 10 -18 0 -18 1 10 47 19 32 45 44 45 22 0 -6 12 -1 26 10 15
12 33 21 40 21 9 0 14 12 14 35 0 21 8 43 19 54 11 11 25 38 31 60 6 23 15 41
20 41 14 0 12 28 -1 32 -8 3 -9 13 -4 28 8 24 8 24 16 5 6 -15 8 -16 8 -4 1 9
8 22 16 29 33 27 15 52 -70 100 -31 17 -48 20 -84 15 -58 -9 -124 -44 -116
-63 3 -7 5 -18 5 -23 0 -5 10 -9 23 -10 16 -1 12 -4 -13 -11 -19 -5 -43 -17
-52 -25 -25 -22 -23 -78 4 -122 13 -20 23 -40 23 -46 0 -5 4 -11 9 -12 18 -3
27 -32 16 -52 -5 -11 -10 -35 -10 -53 0 -22 -10 -45 -28 -68 l-28 -33 -53 19
c-55 19 -91 53 -91 84 0 10 -7 23 -15 30 -11 9 -12 17 -4 33 9 16 8 23 -4 32
-8 6 -15 18 -15 26 3 40 -4 57 -22 62 -13 3 -20 14 -20 30 0 14 -4 27 -10 29
-6 2 -4 15 5 31 18 35 14 80 -8 105 -10 10 -17 23 -17 29 0 6 -10 18 -22 27
-23 15 -23 16 -4 31 11 8 28 15 38 15 10 0 20 10 24 23 4 18 13 24 35 25 16 0
38 3 49 7 11 3 34 0 52 -9 18 -8 49 -17 68 -19 19 -3 51 -8 70 -11 83 -13 136
-13 232 0 57 8 122 16 145 18 45 5 83 21 83 36 0 6 12 10 28 11 20 0 14 4 -23
14 -27 7 -75 20 -105 28 -102 28 -180 31 -240 8 -45 -17 -60 -19 -103 -9 -28
5 -64 16 -82 24 -17 7 -54 13 -81 13 -27 -1 -53 0 -59 2 -5 1 -23 -1 -39 -6
-18 -5 -31 -4 -35 3 -4 6 -49 19 -101 27 -52 9 -99 21 -104 26 -6 5 -19 9 -31
9 -20 0 -85 51 -85 67 0 4 -13 22 -29 40 -28 32 -35 73 -13 81 7 2 15 -3 18
-12 3 -9 15 -16 25 -16 10 0 52 -22 94 -49 76 -50 140 -71 216 -71 52 0 119
-21 119 -38 0 -8 8 -12 18 -10 9 2 16 10 15 16 -2 7 6 12 17 12 11 0 20 4 20
8 0 12 114 43 175 48 28 2 84 6 125 8 62 3 77 7 92 26 10 13 21 20 25 17 3 -4
13 -2 22 3 9 4 60 13 113 19 135 15 194 55 151 103 -13 14 -14 25 -7 45 11 32
40 41 133 44 36 1 72 6 79 12 9 7 16 7 23 0 7 -7 27 -2 62 17 37 20 73 30 127
34 99 9 142 16 157 28 7 5 17 7 22 4 5 -4 13 -2 16 4 5 8 11 7 21 -1 8 -6 14
-8 14 -3z m-9134 -303 c-10 -10 -19 5 -10 18 6 11 8 11 12 0 2 -7 1 -15 -2
-18z m41 -15 c-3 -7 -5 -2 -5 12 0 14 2 19 5 13 2 -7 2 -19 0 -25z m-160 -150
c-3 -7 -5 -2 -5 12 0 14 2 19 5 13 2 -7 2 -19 0 -25z m127 -13 c3 -8 1 -15 -4
-15 -6 0 -10 7 -10 15 0 8 2 15 4 15 2 0 6 -7 10 -15z m8286 -95 c0 -5 -2 -10
-4 -10 -3 0 -8 5 -11 10 -3 6 -1 10 4 10 6 0 11 -4 11 -10z m-8627 -154 c3 -7
2 -17 -3 -22 -4 -5 -10 -18 -13 -29 -3 -11 -5 -1 -6 23 -1 41 11 57 22 28z
m7804 -198 c11 -19 14 -48 4 -48 -9 0 -21 -48 -22 -83 0 -10 -6 -20 -13 -23
-7 -3 -11 -16 -8 -33 5 -33 -21 -65 -66 -82 -21 -8 -23 -12 -12 -20 12 -7 11
-10 -7 -15 -12 -3 -24 -13 -26 -23 -3 -11 -6 -7 -11 12 -5 15 -15 27 -23 27
-19 0 -8 16 16 23 15 3 18 1 14 -12 -3 -9 2 -6 11 7 15 20 16 24 2 43 -15 22
-11 48 8 62 7 4 2 9 -11 13 -20 5 -23 13 -23 51 0 48 12 66 50 78 14 4 34 14
45 21 24 17 61 18 72 2z m1248 -377 c14 -16 16 -30 11 -72 -4 -29 -10 -57 -15
-63 -5 -6 -15 -31 -22 -56 -23 -80 -126 -248 -152 -250 -5 0 -28 -15 -51 -34
-31 -26 -42 -43 -44 -68 -2 -18 -8 -35 -14 -39 -6 -4 -8 -19 -5 -38 4 -18 2
-31 -3 -31 -6 0 -10 -6 -10 -12 0 -7 -10 -33 -22 -58 -11 -25 -22 -52 -23 -60
-8 -69 -67 -137 -109 -126 -29 7 -34 26 -26 98 5 46 13 65 36 90 26 28 49 61
93 138 16 28 29 65 35 97 4 25 -2 42 -28 80 -38 55 -54 100 -61 164 -4 43 -2
48 43 91 51 50 99 82 201 134 78 40 138 45 166 15z m-677 -474 c6 0 12 -4 12
-9 0 -4 7 -8 15 -8 8 0 15 -4 15 -10 0 -5 6 -10 14 -10 19 0 40 -54 32 -85 -8
-31 -27 -28 -133 21 -67 30 -73 35 -73 63 0 38 24 52 70 44 19 -3 41 -6 48 -6z
m-1166 -226 c5 -4 -3 -45 -16 -91 -45 -154 -48 -177 -35 -257 7 -40 16 -76 20
-79 5 -3 9 -16 9 -30 0 -13 3 -24 8 -24 4 0 8 -11 8 -25 5 -80 84 -168 198
-221 59 -27 91 -34 186 -43 63 -5 131 -8 150 -6 19 2 67 6 105 10 58 5 83 13
147 50 43 25 81 45 86 45 14 0 50 43 61 71 7 20 6 30 -6 42 -9 9 -17 31 -17
50 -2 34 -44 97 -65 97 -6 0 -11 10 -11 22 0 20 42 66 101 112 13 10 48 41 77
69 50 46 56 49 93 43 22 -4 48 -10 57 -15 9 -5 37 -15 62 -22 25 -7 49 -16 55
-21 5 -4 19 -8 32 -8 13 0 23 -4 23 -10 0 -5 9 -10 19 -10 15 0 20 -10 26 -48
7 -53 -21 -151 -105 -362 -23 -58 -52 -133 -65 -167 -13 -34 -30 -77 -38 -95
-25 -57 -83 -219 -111 -310 -15 -48 -31 -90 -37 -93 -5 -4 -9 -12 -9 -20 0 -8
-15 -47 -34 -87 -133 -286 -192 -390 -267 -470 -34 -38 -68 -68 -75 -68 -7 0
-18 -8 -23 -17 -6 -10 -11 -14 -11 -10 0 5 -7 1 -16 -8 -28 -28 -45 -1 -40 61
2 31 0 56 -6 60 -5 3 -8 15 -5 25 3 11 1 17 -4 13 -5 -3 -9 -4 -9 -2 0 28 -43
227 -53 247 -31 59 -53 91 -62 91 -5 0 -23 16 -38 35 -15 19 -34 35 -42 35 -8
0 -15 6 -15 14 0 11 -51 42 -100 61 -8 3 -33 16 -55 30 -89 56 -113 65 -173
65 -52 0 -62 -3 -76 -25 -22 -34 -20 -124 5 -226 15 -61 20 -107 17 -169 -4
-111 -34 -174 -130 -272 -38 -40 -90 -102 -114 -138 -80 -118 -89 -128 -113
-142 -13 -7 -27 -23 -32 -35 -11 -31 -56 -32 -54 -2 1 11 7 24 14 29 9 5 10
10 2 14 -6 4 -11 18 -11 31 0 13 -9 48 -19 77 -10 29 -22 67 -27 83 -4 17 -9
37 -11 45 -2 8 -4 121 -5 250 -1 212 1 241 19 295 11 33 25 89 31 125 33 195
53 305 72 390 12 52 30 136 40 185 20 101 46 195 65 240 7 17 27 66 45 110 67
166 147 313 204 372 12 11 27 28 34 37 13 16 45 14 64 -3z m-7120 -2109 c4 -4
9 -18 10 -32 4 -34 -33 -51 -91 -40 -65 12 -82 49 -33 73 27 14 100 13 114 -1z
m6527 -251 c10 -7 4 -18 -28 -50 -35 -35 -47 -41 -82 -41 -32 0 -42 4 -46 20
-3 11 -12 20 -19 20 -29 0 -12 16 39 36 55 23 113 29 136 15z m765 -39 c-3
-15 -15 -38 -25 -52 -11 -14 -29 -40 -40 -57 -12 -18 -25 -33 -30 -33 -5 0 -9
-7 -9 -15 0 -8 -6 -15 -12 -15 -7 -1 -26 -19 -43 -40 -16 -22 -36 -37 -43 -35
-7 3 -11 1 -8 -4 7 -10 -53 -55 -77 -56 -10 -1 -22 -6 -25 -12 -4 -6 -16 -7
-26 -3 -14 4 -16 9 -8 14 7 4 12 14 12 22 0 8 -4 13 -9 10 -4 -3 -6 6 -3 19 2
14 8 22 13 19 5 -3 9 2 9 10 0 9 4 16 9 16 5 0 13 9 16 20 5 16 12 19 27 14
12 -4 18 -2 14 4 -8 13 30 55 43 47 6 -3 11 1 11 9 0 9 6 16 13 16 6 0 26 15
44 33 24 25 30 36 21 45 -8 8 -7 13 8 17 10 3 30 11 43 18 14 7 37 13 53 14
26 2 28 0 22 -25z m-178 -89 c-11 -11 -19 6 -11 24 8 17 8 17 12 0 3 -10 2
-21 -1 -24z m-301 -333 c-3 -5 -12 -7 -20 -3 -21 7 -19 13 6 13 11 0 18 -4 14
-10z m8930 -2274 c18 -14 44 -28 58 -31 15 -4 29 -16 33 -27 6 -20 -12 -68
-26 -68 -17 0 -130 125 -130 144 0 14 36 4 65 -18z m715 -473 c0 -20 -24 -11
-28 10 -2 12 1 15 12 11 9 -3 16 -13 16 -21z m50 -47 c0 -3 -4 -8 -10 -11 -5
-3 -10 -1 -10 4 0 6 5 11 10 11 6 0 10 -2 10 -4z m-3420 -361 c0 -8 9 -15 20
-15 11 0 23 -7 26 -15 4 -8 11 -15 18 -15 6 0 22 -6 36 -13 14 -7 51 -19 83
-27 31 -7 57 -17 57 -22 0 -4 9 -8 20 -8 11 0 28 -7 39 -16 20 -18 25 -20 196
-82 61 -22 127 -47 147 -56 43 -18 131 -106 153 -153 9 -18 19 -35 24 -37 5
-3 12 -25 15 -49 6 -36 2 -54 -23 -104 -17 -34 -36 -60 -45 -60 -9 0 -16 6
-16 14 0 7 -5 13 -11 13 -7 0 -9 -10 -5 -25 4 -14 2 -25 -3 -25 -5 0 -12 -15
-15 -34 -4 -19 -14 -37 -22 -40 -29 -11 -53 -6 -58 12 -3 9 -25 29 -48 44 -42
26 -56 47 -93 136 -20 47 -22 48 -51 27 -39 -27 -112 -37 -173 -24 -31 7 -60
16 -66 21 -5 4 -32 8 -61 8 -38 0 -61 6 -88 25 -20 14 -40 25 -44 25 -4 0 -13
15 -21 33 -7 17 -22 50 -32 73 -11 22 -27 81 -37 130 -13 61 -23 89 -33 89 -8
0 -13 8 -13 18 1 9 -2 17 -7 17 -15 0 -10 44 7 68 10 14 26 22 47 23 27 0 29
2 12 9 -19 8 -19 9 3 9 15 1 26 8 29 21 6 23 33 27 33 5z m898 -605 c1 -23 -3
-38 -9 -35 -5 4 -9 -5 -9 -18 0 -14 -7 -30 -15 -37 -24 -20 -20 46 5 77 11 14
20 32 20 39 0 8 2 14 4 14 2 0 4 -18 4 -40z m545 -110 c14 -11 35 -20 46 -20
12 0 21 -4 21 -9 0 -5 10 -7 22 -3 15 3 19 2 14 -7 -6 -8 0 -10 18 -6 50 10
81 14 68 9 -21 -10 -2 -24 32 -24 19 0 39 -7 46 -15 7 -8 21 -15 31 -15 11 0
19 -4 19 -10 0 -5 16 -12 35 -16 19 -3 39 -12 43 -19 4 -7 22 -20 40 -29 17
-9 32 -22 32 -29 0 -8 4 -7 10 3 9 15 11 13 14 -12 0 -7 10 -13 21 -13 14 0
21 -8 23 -25 4 -28 32 -73 32 -51 0 8 3 12 6 8 3 -3 8 -32 10 -64 2 -32 6 -74
8 -93 3 -19 2 -27 0 -17 -3 9 -10 17 -15 17 -6 0 -7 -5 -4 -10 9 -14 -14 -111
-31 -135 -13 -18 -15 -18 -38 4 l-25 23 -11 -41 c-15 -56 -37 -53 -46 7 -4 26
-10 39 -12 30 -4 -21 -4 -21 -53 -6 -22 6 -39 17 -39 25 0 11 -4 11 -20 3 -16
-9 -22 -8 -26 5 -4 9 -14 15 -23 13 -21 -3 -65 27 -57 40 4 6 -2 8 -14 5 -15
-4 -20 0 -20 13 0 16 -2 17 -10 4 -9 -13 -12 -13 -21 3 -5 9 -17 17 -25 17 -8
0 -18 8 -21 17 -12 31 -37 53 -60 53 -40 0 -71 46 -64 92 0 4 -6 5 -14 2 -8
-4 -15 -1 -15 6 0 6 -4 9 -9 5 -17 -10 -40 92 -30 131 6 19 7 39 4 44 -11 18
6 102 20 97 6 -3 18 -1 26 4 21 13 34 11 62 -11z m-683 -11 c0 -5 -4 -9 -10
-9 -5 0 -10 7 -10 16 0 8 5 12 10 9 6 -3 10 -10 10 -16z m548 -40 c2 -25 -1
-56 -7 -69 l-10 -25 0 23 c-1 13 -6 32 -11 43 -7 13 -7 19 -1 19 6 0 8 13 4
31 -5 25 -3 31 8 27 9 -3 15 -22 17 -49z m-11068 -4 c0 -8 -4 -15 -10 -15 -5
0 -7 7 -4 15 4 8 8 15 10 15 2 0 4 -7 4 -15z m90 -27 l-1 -43 -14 40 c-18 49
-18 45 0 45 11 0 15 -11 15 -42z m-243 -30 c-3 -8 -6 -5 -6 6 -1 11 2 17 5 13
3 -3 4 -12 1 -19z m203 2 c0 -5 -5 -10 -11 -10 -5 0 -7 5 -4 10 3 6 8 10 11
10 2 0 4 -4 4 -10z m-283 -6 c-3 -3 -12 -4 -19 -1 -8 3 -5 6 6 6 11 1 17 -2
13 -5z m12074 -276 c1 -24 3 -53 4 -65 1 -13 -2 -23 -8 -23 -5 0 -7 -13 -3
-30 3 -16 2 -30 -3 -30 -5 0 -11 -10 -14 -22 -8 -30 -21 -14 -23 27 -1 28 2
33 12 24 11 -9 13 -1 12 42 -2 67 4 119 14 119 4 0 9 -19 9 -42z m64 -140 c-8
-93 -11 -103 -29 -89 -14 12 -9 134 5 139 5 2 9 10 9 18 0 8 5 14 11 14 7 0 8
-26 4 -82z m142 -40 c-3 -8 -6 -5 -6 6 -1 11 2 17 5 13 3 -3 4 -12 1 -19z m92
-100 c-1 -24 -3 -51 -5 -60 -5 -15 -7 -15 -23 -2 -20 18 -17 62 5 71 8 3 14
11 14 19 0 8 2 14 5 14 3 0 4 -19 4 -42z m458 -125 c-3 -10 -5 -4 -5 12 0 17
2 24 5 18 2 -7 2 -21 0 -30z m23 -33 c0 -5 -4 -10 -10 -10 -5 0 -10 5 -10 10
0 6 5 10 10 10 6 0 10 -4 10 -10z m-260 -25 c0 -8 -4 -15 -10 -15 -5 0 -10 7
-10 15 0 8 5 15 10 15 6 0 10 -7 10 -15z m260 -45 c0 -19 -2 -20 -15 -6 -8 8
-15 24 -15 36 0 19 2 20 15 6 8 -8 15 -24 15 -36z m-300 14 c11 -12 10 -18 -3
-31 -8 -9 -23 -13 -31 -10 -13 5 -14 11 -4 32 13 29 21 31 38 9z m146 -77 c-7
-42 -34 -97 -48 -97 -5 0 -11 8 -14 18 -3 9 -10 25 -15 36 -7 13 -7 16 0 11 7
-4 11 5 11 22 0 21 5 29 19 30 11 1 22 -6 25 -15 3 -9 4 -3 2 14 -2 24 1 31
12 26 10 -4 12 -15 8 -45z m59 -37 c4 -13 -1 -33 -14 -53 l-21 -32 0 30 c0 64
22 97 35 55z m-1953 -342 c-9 -9 -12 -4 -11 23 0 32 1 33 11 11 8 -17 8 -26 0
-34z m61 6 l12 -27 5 24 c4 18 14 25 38 27 20 2 32 -1 32 -8 0 -7 7 -9 16 -6
15 6 121 -24 156 -44 10 -6 23 -10 30 -10 7 0 40 -14 73 -30 33 -16 65 -30 71
-30 7 0 25 -7 40 -15 16 -8 36 -15 45 -15 8 0 24 -8 35 -19 11 -10 30 -22 42
-25 12 -4 22 -11 22 -17 0 -5 15 -15 33 -22 17 -8 38 -21 46 -30 7 -10 20 -17
28 -17 20 0 64 -36 55 -45 -4 -4 4 -2 18 5 14 7 22 9 18 5 -4 -5 -4 -13 1 -19
10 -12 -7 -116 -19 -116 -10 0 -22 48 -15 60 3 5 1 11 -4 15 -11 6 -41 -45
-41 -69 0 -8 -8 -20 -17 -25 -10 -6 -12 -11 -5 -11 6 0 12 -7 12 -15 0 -18
-37 -20 -43 -2 -3 9 -7 9 -20 -1 -13 -12 -16 -10 -19 15 -4 26 -5 25 -16 -14
-14 -46 -25 -53 -40 -26 -9 14 -11 14 -21 -5 -7 -13 -21 -22 -36 -22 -18 0
-23 -4 -19 -15 4 -8 1 -15 -5 -15 -6 0 -11 6 -11 13 0 9 -2 9 -9 -1 -7 -11 -9
-11 -14 2 -8 20 -37 21 -37 1 0 -11 -7 -14 -26 -11 -29 6 -48 25 -70 74 -8 17
-20 32 -27 32 -14 0 -57 52 -57 69 0 6 -6 14 -13 18 -8 4 -17 16 -20 26 -4 10
-11 16 -16 12 -5 -3 -12 -1 -16 5 -4 6 -11 7 -17 4 -6 -4 -8 1 -4 13 4 12 1
25 -9 33 -8 7 -15 21 -15 31 0 11 -4 19 -10 19 -5 0 -10 -7 -10 -15 0 -8 -4
-15 -10 -15 -5 0 -10 5 -10 11 0 6 -12 31 -27 57 -16 26 -28 51 -28 55 0 5 -7
14 -16 21 -9 6 -18 20 -20 31 -3 12 -14 21 -27 23 -20 3 -22 9 -20 43 2 45 13
50 31 13z m2245 1 c-3 -3 -9 2 -12 12 -6 14 -5 15 5 6 7 -7 10 -15 7 -18z
m-2238 -99 c0 -2 -7 -9 -15 -16 -12 -10 -15 -10 -15 4 0 9 7 16 15 16 8 0 15
-2 15 -4z m888 -243 c-1 -10 2 -33 6 -50 5 -23 4 -33 -4 -33 -7 0 -5 -6 4 -16
9 -8 13 -20 10 -26 -4 -6 -1 -14 6 -18 7 -5 14 -33 16 -66 3 -51 2 -55 -7 -26
-5 17 -14 32 -19 32 -6 0 -10 12 -10 26 0 18 -4 25 -14 21 -9 -4 -18 4 -24 21
-27 70 -25 122 4 122 8 0 17 7 20 15 8 20 13 19 12 -2z m352 -153 c0 -5 -2
-10 -4 -10 -3 0 -8 5 -11 10 -3 6 -1 10 4 10 6 0 11 -4 11 -10z m72 -62 c45
-51 80 -145 69 -185 -7 -27 -8 -26 -21 20 -8 26 -19 47 -25 47 -5 1 -21 24
-34 53 -14 29 -28 54 -31 57 -4 3 -10 15 -14 28 -12 36 14 27 56 -20z m-285
-15 c20 -36 34 -135 21 -148 -3 -3 -19 10 -37 30 -31 36 -42 87 -21 100 6 3 7
17 4 31 -9 36 10 29 33 -13z m75 -135 c-9 -9 -12 -7 -12 12 0 19 3 21 12 12 9
-9 9 -15 0 -24z m48 -5 c0 -29 -2 -29 -19 5 -10 18 -9 22 4 22 10 0 15 -9 15
-27z"/>
<path d="M5314 13639 c-11 -18 11 -32 25 -16 9 12 8 16 -3 20 -9 4 -18 1 -22
-4z"/>
<path d="M5115 13379 c-4 -6 -5 -12 -2 -15 2 -3 7 2 10 11 7 17 1 20 -8 4z"/>
<path d="M5191 13374 c0 -11 3 -14 6 -6 3 7 2 16 -1 19 -3 4 -6 -2 -5 -13z"/>
<path d="M4939 13020 c25 -21 51 -26 51 -10 0 12 -34 30 -57 30 -16 -1 -15 -3
6 -20z"/>
<path d="M4706 12942 c-3 -6 -1 -14 5 -17 15 -10 25 3 12 16 -7 7 -13 7 -17 1z"/>
<path d="M4723 12878 c2 -7 10 -13 18 -13 8 0 18 -6 22 -12 10 -16 43 -17 53
-1 4 7 3 8 -4 4 -7 -4 -12 -1 -12 7 0 17 -21 27 -57 27 -15 0 -23 -5 -20 -12z"/>
<path d="M4290 12690 c0 -5 7 -10 15 -10 8 0 15 5 15 10 0 6 -7 10 -15 10 -8
0 -15 -4 -15 -10z"/>
<path d="M4250 12480 c-9 -6 -10 -10 -3 -10 6 0 15 5 18 10 8 12 4 12 -15 0z"/>
<path d="M4410 11989 c0 -5 5 -7 10 -4 6 3 10 8 10 11 0 2 -4 4 -10 4 -5 0
-10 -5 -10 -11z"/>
<path d="M4240 11930 c0 -5 5 -10 11 -10 5 0 7 5 4 10 -3 6 -8 10 -11 10 -2 0
-4 -4 -4 -10z"/>
<path d="M4238 11883 c7 -3 16 -2 19 1 4 3 -2 6 -13 5 -11 0 -14 -3 -6 -6z"/>
<path d="M4270 11870 c0 -12 28 -21 35 -11 2 5 -4 11 -15 14 -11 3 -20 2 -20
-3z"/>
<path d="M4325 11850 c3 -5 8 -10 11 -10 2 0 4 5 4 10 0 6 -5 10 -11 10 -5 0
-7 -4 -4 -10z"/>
<path d="M4390 11780 c0 -5 10 -15 23 -21 22 -12 22 -12 3 10 -21 23 -26 26
-26 11z"/>
<path d="M8371 10014 c0 -11 3 -14 6 -6 3 7 2 16 -1 19 -3 4 -6 -2 -5 -13z"/>
<path d="M8380 9734 c0 -8 5 -12 10 -9 6 3 10 10 10 16 0 5 -4 9 -10 9 -5 0
-10 -7 -10 -16z"/>
<path d="M8370 9690 c0 -5 5 -10 10 -10 6 0 10 5 10 10 0 6 -4 10 -10 10 -5 0
-10 -4 -10 -10z"/>
<path d="M8920 9000 c0 -5 5 -10 10 -10 6 0 10 5 10 10 0 6 -4 10 -10 10 -5 0
-10 -4 -10 -10z"/>
<path d="M13805 2473 c13 -55 45 -67 45 -18 0 14 -8 29 -19 35 -30 15 -34 13
-26 -17z"/>
<path d="M3924 12582 c1 -20 6 -29 16 -27 17 3 15 24 -4 43 -11 11 -13 8 -12
-16z"/>
<path d="M2880 12490 c0 -5 5 -10 10 -10 6 0 10 5 10 10 0 6 -4 10 -10 10 -5
0 -10 -4 -10 -10z"/>
<path d="M3040 12445 c0 -14 4 -25 9 -25 4 0 6 11 3 25 -2 14 -6 25 -8 25 -2
0 -4 -11 -4 -25z"/>
<path d="M3912 12361 c4 -13 18 -16 19 -4 0 4 -5 9 -11 12 -7 2 -11 -2 -8 -8z"/>
<path d="M3030 12182 c0 -17 4 -34 10 -37 6 -4 7 6 3 27 -8 44 -13 48 -13 10z"/>
<path d="M3166 12199 c-4 -9 -3 -32 2 -50 8 -28 11 -31 17 -16 4 10 3 32 -2
50 -8 25 -12 28 -17 16z"/>
<path d="M3001 12084 c0 -11 3 -14 6 -6 3 7 2 16 -1 19 -3 4 -6 -2 -5 -13z"/>
<path d="M2388 11973 c-3 -50 -5 -55 -14 -35 l-10 24 -11 -25 c-10 -20 -8 -32
6 -61 16 -30 21 -34 31 -21 7 8 10 25 7 37 -3 11 0 35 6 52 13 33 11 86 -3 86
-5 0 -10 -26 -12 -57z"/>
<path d="M2882 11948 c5 -32 28 -35 28 -4 0 17 -5 26 -16 26 -10 0 -14 -7 -12
-22z"/>
<path d="M3197 11858 c7 -41 10 -45 25 -30 9 9 9 12 0 12 -7 0 -12 11 -12 25
0 14 -4 25 -10 25 -5 0 -7 -14 -3 -32z"/>
<path d="M3197 11768 c-7 -26 -1 -38 19 -38 12 0 12 4 4 20 -6 11 -8 25 -5 30
3 6 2 10 -3 10 -5 0 -12 -10 -15 -22z"/>
<path d="M2382 11740 c0 -14 2 -19 5 -12 2 6 2 18 0 25 -3 6 -5 1 -5 -13z"/>
<path d="M3272 11718 c2 -25 6 -44 11 -41 10 6 8 55 -3 73 -8 11 -10 2 -8 -32z"/>
<path d="M2982 11670 c0 -19 2 -27 5 -17 2 9 2 25 0 35 -3 9 -5 1 -5 -18z"/>
<path d="M2352 11655 c0 -16 2 -22 5 -12 2 9 2 23 0 30 -3 6 -5 -1 -5 -18z"/>
<path d="M3220 11669 c0 -5 5 -7 10 -4 6 3 10 8 10 11 0 2 -4 4 -10 4 -5 0
-10 -5 -10 -11z"/>
<path d="M1952 11630 c0 -19 2 -27 5 -17 2 9 2 25 0 35 -3 9 -5 1 -5 -18z"/>
<path d="M2312 11640 c0 -14 2 -19 5 -12 2 6 2 18 0 25 -3 6 -5 1 -5 -13z"/>
<path d="M2382 11630 c0 -19 2 -27 5 -17 2 9 2 25 0 35 -3 9 -5 1 -5 -18z"/>
<path d="M3020 11643 c0 -5 5 -15 10 -23 8 -12 10 -11 10 8 0 12 -4 22 -10 22
-5 0 -10 -3 -10 -7z"/>
<path d="M3215 11627 c-4 -10 -5 -21 -1 -24 10 -10 18 4 13 24 -4 17 -4 17
-12 0z"/>
<path d="M2350 11579 c0 -11 4 -18 10 -14 5 3 7 12 3 20 -7 21 -13 19 -13 -6z"/>
<path d="M1997 11574 c-4 -4 -7 -19 -6 -33 l0 -26 10 24 c10 26 8 47 -4 35z"/>
<path d="M1510 11506 c0 -8 5 -18 10 -21 6 -3 10 3 10 14 0 12 -4 21 -10 21
-5 0 -10 -6 -10 -14z"/>
<path d="M2188 11498 c-8 -49 14 -80 27 -38 7 22 -2 60 -15 60 -4 0 -9 -10
-12 -22z"/>
<path d="M2001 11454 c0 -11 3 -14 6 -6 3 7 2 16 -1 19 -3 4 -6 -2 -5 -13z"/>
<path d="M3070 11425 c0 -8 2 -15 4 -15 2 0 6 7 10 15 3 8 1 15 -4 15 -6 0
-10 -7 -10 -15z"/>
<path d="M2202 11385 c0 -16 2 -22 5 -12 2 9 2 23 0 30 -3 6 -5 -1 -5 -18z"/>
<path d="M1450 11360 c0 -19 3 -21 12 -12 9 9 9 15 0 24 -9 9 -12 7 -12 -12z"/>
<path d="M1191 11104 c0 -11 3 -14 6 -6 3 7 2 16 -1 19 -3 4 -6 -2 -5 -13z"/>
<path d="M1211 11094 c0 -11 3 -14 6 -6 3 7 2 16 -1 19 -3 4 -6 -2 -5 -13z"/>
<path d="M1140 10990 c0 -5 5 -10 10 -10 6 0 10 5 10 10 0 6 -4 10 -10 10 -5
0 -10 -4 -10 -10z"/>
<path d="M1090 10900 c0 -11 5 -20 10 -20 6 0 10 9 10 20 0 11 -4 20 -10 20
-5 0 -10 -9 -10 -20z"/>
<path d="M864 10725 c-6 -24 0 -44 10 -34 11 11 17 59 7 59 -6 0 -13 -11 -17
-25z"/>
<path d="M567 10266 c-6 -15 1 -26 15 -26 11 0 10 27 -1 34 -5 3 -11 0 -14 -8z"/>
<path d="M330 10040 c0 -11 5 -20 10 -20 6 0 10 9 10 20 0 11 -4 20 -10 20 -5
0 -10 -9 -10 -20z"/>
<path d="M291 10008 c-1 -16 4 -28 9 -28 12 0 12 8 0 35 -8 18 -9 17 -9 -7z"/>
<path d="M310 9961 c0 -6 5 -13 10 -16 6 -3 10 1 10 9 0 9 -4 16 -10 16 -5 0
-10 -4 -10 -9z"/>
<path d="M12 9785 c0 -16 2 -22 5 -12 2 9 2 23 0 30 -3 6 -5 -1 -5 -18z"/>
<path d="M6161 5304 c0 -11 3 -14 6 -6 3 7 2 16 -1 19 -3 4 -6 -2 -5 -13z"/>
<path d="M6140 5269 c0 -5 5 -7 10 -4 6 3 10 8 10 11 0 2 -4 4 -10 4 -5 0 -10
-5 -10 -11z"/>
<path d="M3740 2190 c0 -5 5 -10 10 -10 6 0 10 5 10 10 0 6 -4 10 -10 10 -5 0
-10 -4 -10 -10z"/>
<path d="M3840 1940 c0 -5 9 -10 21 -10 11 0 17 5 14 10 -3 6 -13 10 -21 10
-8 0 -14 -4 -14 -10z"/>
<path d="M3810 1910 c0 -5 5 -10 10 -10 6 0 10 5 10 10 0 6 -4 10 -10 10 -5 0
-10 -4 -10 -10z"/>
<path d="M3835 1860 c-15 -25 28 -40 69 -24 17 7 22 34 6 34 -5 0 -10 -7 -10
-15 0 -8 -9 -15 -20 -15 -11 0 -20 7 -20 15 0 17 -16 20 -25 5z"/>
<path d="M0 880 l0 -880 650 0 c617 0 699 3 633 27 -24 8 -120 106 -127 131
-8 25 -86 102 -103 102 -8 0 -16 7 -19 15 -4 8 -12 15 -20 15 -8 0 -14 5 -14
10 0 6 -7 10 -16 10 -8 0 -12 4 -9 10 3 5 -6 27 -20 47 -14 21 -25 46 -25 55
0 34 -61 118 -85 118 -7 0 -29 25 -49 55 -20 30 -42 55 -49 55 -8 0 -24 11
-37 25 -13 14 -29 25 -37 25 -21 0 -93 78 -93 100 0 11 -4 20 -9 20 -11 0 -59
83 -67 117 -4 13 -10 23 -15 23 -5 0 -9 14 -9 30 0 17 -4 30 -10 30 -5 0 -10
9 -10 19 0 11 -6 21 -12 23 -18 6 -21 116 -7 271 6 70 9 131 5 134 -8 9 -50
-49 -75 -104 -12 -26 -40 -42 -61 -35 -21 6 -65 58 -101 117 -49 82 -54 90
-60 95 -14 13 -106 159 -118 188 -7 17 -17 32 -22 32 -5 0 -9 -381 -9 -880z"/>
<path d="M16360 1176 c0 -22 3 -27 11 -19 8 8 8 16 0 30 -9 16 -10 14 -11 -11z"/>
<path d="M16397 1187 c-3 -7 -1 -20 3 -28 7 -11 10 -10 16 4 4 10 2 23 -3 28
-7 7 -12 6 -16 -4z"/>
<path d="M814 1134 c-22 -88 34 -207 163 -345 72 -78 104 -103 223 -179 75
-47 129 -87 151 -110 28 -30 89 -66 89 -52 0 17 -33 53 -63 69 -50 25 -76 55
-88 98 -11 41 -87 165 -101 165 -4 0 -8 6 -8 13 0 6 -16 30 -36 52 -58 66 -92
107 -144 176 -31 42 -59 69 -76 73 -14 4 -40 20 -58 36 -38 37 -44 37 -52 4z"/>
<path d="M16496 917 c3 -10 9 -15 12 -12 3 3 0 11 -7 18 -10 9 -11 8 -5 -6z"/>
<path d="M1408 723 c7 -3 16 -2 19 1 4 3 -2 6 -13 5 -11 0 -14 -3 -6 -6z"/>
<path d="M16700 618 c0 -7 8 -22 16 -33 15 -19 15 -19 12 9 -3 29 -28 51 -28
24z"/>
<path d="M1554 611 c-9 -9 -3 -39 9 -49 17 -14 34 -3 42 28 5 22 3 25 -20 25
-15 0 -29 -2 -31 -4z"/>
<path d="M1767 463 c-28 -42 -34 -59 -25 -65 7 -4 9 -8 4 -8 -6 0 2 -12 16
-27 14 -16 40 -57 57 -93 39 -80 47 -94 91 -139 19 -21 42 -57 50 -82 l15 -44
665 -2 c482 -2 660 1 646 8 -10 6 -27 20 -37 30 -11 11 -27 19 -36 19 -9 0
-30 4 -47 10 -164 52 -228 74 -306 108 -122 53 -180 70 -180 51 0 -17 -49
-140 -63 -157 -6 -8 -27 -22 -47 -32 -35 -18 -37 -18 -68 2 -18 11 -35 31 -38
44 -3 13 -10 24 -15 24 -16 0 -9 23 17 57 18 24 28 51 31 92 5 55 4 58 -30 88
-53 47 -147 74 -274 79 -169 6 -185 10 -335 85 -36 18 -54 9 -91 -48z"/>
<path d="M3805 332 c-22 -2 -43 -7 -48 -13 -4 -5 -4 -7 0 -4 3 3 13 -4 20 -15
14 -20 105 -71 153 -85 55 -16 102 -38 273 -129 37 -20 89 -41 115 -46 26 -5
57 -11 70 -14 32 -7 27 10 -13 45 -38 34 -61 50 -191 132 -134 84 -287 136
-379 129z"/>
</g>
</svg>
